%TF.GenerationSoftware,KiCad,Pcbnew,(6.0.4)*%
%TF.CreationDate,2022-05-05T02:24:40+01:00*%
%TF.ProjectId,Z80 QFP & LCC to DIL,5a383020-5146-4502-9026-204c43432074,rev?*%
%TF.SameCoordinates,Original*%
%TF.FileFunction,Copper,L1,Top*%
%TF.FilePolarity,Positive*%
%FSLAX46Y46*%
G04 Gerber Fmt 4.6, Leading zero omitted, Abs format (unit mm)*
G04 Created by KiCad (PCBNEW (6.0.4)) date 2022-05-05 02:24:40*
%MOMM*%
%LPD*%
G01*
G04 APERTURE LIST*
G04 Aperture macros list*
%AMRoundRect*
0 Rectangle with rounded corners*
0 $1 Rounding radius*
0 $2 $3 $4 $5 $6 $7 $8 $9 X,Y pos of 4 corners*
0 Add a 4 corners polygon primitive as box body*
4,1,4,$2,$3,$4,$5,$6,$7,$8,$9,$2,$3,0*
0 Add four circle primitives for the rounded corners*
1,1,$1+$1,$2,$3*
1,1,$1+$1,$4,$5*
1,1,$1+$1,$6,$7*
1,1,$1+$1,$8,$9*
0 Add four rect primitives between the rounded corners*
20,1,$1+$1,$2,$3,$4,$5,0*
20,1,$1+$1,$4,$5,$6,$7,0*
20,1,$1+$1,$6,$7,$8,$9,0*
20,1,$1+$1,$8,$9,$2,$3,0*%
G04 Aperture macros list end*
%TA.AperFunction,SMDPad,CuDef*%
%ADD10RoundRect,0.137500X-0.600000X-0.137500X0.600000X-0.137500X0.600000X0.137500X-0.600000X0.137500X0*%
%TD*%
%TA.AperFunction,SMDPad,CuDef*%
%ADD11RoundRect,0.137500X-0.137500X-0.600000X0.137500X-0.600000X0.137500X0.600000X-0.137500X0.600000X0*%
%TD*%
%TA.AperFunction,ComponentPad*%
%ADD12R,1.600000X1.600000*%
%TD*%
%TA.AperFunction,ComponentPad*%
%ADD13O,1.600000X1.600000*%
%TD*%
%TA.AperFunction,ComponentPad*%
%ADD14R,1.422400X1.422400*%
%TD*%
%TA.AperFunction,ComponentPad*%
%ADD15C,1.422400*%
%TD*%
%TA.AperFunction,ViaPad*%
%ADD16C,0.800000*%
%TD*%
%TA.AperFunction,Conductor*%
%ADD17C,0.200000*%
%TD*%
G04 APERTURE END LIST*
D10*
%TO.P,IC2,1,CLK*%
%TO.N,/CLK*%
X135307500Y-150940000D03*
%TO.P,IC2,2,D4*%
%TO.N,/DA4*%
X135307500Y-151740000D03*
%TO.P,IC2,3,D3*%
%TO.N,/DA3*%
X135307500Y-152540000D03*
%TO.P,IC2,4,D5*%
%TO.N,/DA5*%
X135307500Y-153340000D03*
%TO.P,IC2,5,D6*%
%TO.N,/DA6*%
X135307500Y-154140000D03*
%TO.P,IC2,6,+5V*%
%TO.N,/+5V*%
X135307500Y-154940000D03*
%TO.P,IC2,7,D2*%
%TO.N,/DA2*%
X135307500Y-155740000D03*
%TO.P,IC2,8,D7*%
%TO.N,/DA7*%
X135307500Y-156540000D03*
%TO.P,IC2,9,D0*%
%TO.N,/DA0*%
X135307500Y-157340000D03*
%TO.P,IC2,10,D1*%
%TO.N,/DA1*%
X135307500Y-158140000D03*
%TO.P,IC2,11,NC*%
%TO.N,unconnected-(IC2-Pad11)*%
X135307500Y-158940000D03*
D11*
%TO.P,IC2,12,INT*%
%TO.N,/~{INT}*%
X136970000Y-160602500D03*
%TO.P,IC2,13,NMI*%
%TO.N,/~{NMI}*%
X137770000Y-160602500D03*
%TO.P,IC2,14,HALT*%
%TO.N,/~{HALT}*%
X138570000Y-160602500D03*
%TO.P,IC2,15,MREQ*%
%TO.N,/~{MREQ}*%
X139370000Y-160602500D03*
%TO.P,IC2,16,IOREQ*%
%TO.N,/~{IOREQ}*%
X140170000Y-160602500D03*
%TO.P,IC2,17,NC*%
%TO.N,unconnected-(IC2-Pad17)*%
X140970000Y-160602500D03*
%TO.P,IC2,18,RD*%
%TO.N,/~{RD}*%
X141770000Y-160602500D03*
%TO.P,IC2,19,WR*%
%TO.N,/~{WR}*%
X142570000Y-160602500D03*
%TO.P,IC2,20,BUSACK*%
%TO.N,/~{BUSAK}*%
X143370000Y-160602500D03*
%TO.P,IC2,21,WAIT*%
%TO.N,/~{WAIT}*%
X144170000Y-160602500D03*
%TO.P,IC2,22,BURSREQ*%
%TO.N,/~{BUSRQ}*%
X144970000Y-160602500D03*
D10*
%TO.P,IC2,23,RESET*%
%TO.N,/~{RESET}*%
X146632500Y-158940000D03*
%TO.P,IC2,24,M1*%
%TO.N,/~{M1}*%
X146632500Y-158140000D03*
%TO.P,IC2,25,RFSH*%
%TO.N,/~{REFSH}*%
X146632500Y-157340000D03*
%TO.P,IC2,26,GND*%
%TO.N,/GND*%
X146632500Y-156540000D03*
%TO.P,IC2,27,A0*%
%TO.N,/A0*%
X146632500Y-155740000D03*
%TO.P,IC2,28,A1*%
%TO.N,/A1*%
X146632500Y-154940000D03*
%TO.P,IC2,29,A2*%
%TO.N,/A2*%
X146632500Y-154140000D03*
%TO.P,IC2,30,A3*%
%TO.N,/A3*%
X146632500Y-153340000D03*
%TO.P,IC2,31,A4*%
%TO.N,/A4*%
X146632500Y-152540000D03*
%TO.P,IC2,32,A5*%
%TO.N,/A5*%
X146632500Y-151740000D03*
%TO.P,IC2,33,NC*%
%TO.N,unconnected-(IC2-Pad33)*%
X146632500Y-150940000D03*
D11*
%TO.P,IC2,34,A6*%
%TO.N,/A6*%
X144970000Y-149277500D03*
%TO.P,IC2,35,A7*%
%TO.N,/A7*%
X144170000Y-149277500D03*
%TO.P,IC2,36,A8*%
%TO.N,/A8*%
X143370000Y-149277500D03*
%TO.P,IC2,37,A9*%
%TO.N,/A9*%
X142570000Y-149277500D03*
%TO.P,IC2,38,A10*%
%TO.N,/A10*%
X141770000Y-149277500D03*
%TO.P,IC2,39,NC*%
%TO.N,unconnected-(IC2-Pad39)*%
X140970000Y-149277500D03*
%TO.P,IC2,40,A11*%
%TO.N,/A11*%
X140170000Y-149277500D03*
%TO.P,IC2,41,A12*%
%TO.N,/A12*%
X139370000Y-149277500D03*
%TO.P,IC2,42,A13*%
%TO.N,/A13*%
X138570000Y-149277500D03*
%TO.P,IC2,43,A14*%
%TO.N,/A14*%
X137770000Y-149277500D03*
%TO.P,IC2,44,A15*%
%TO.N,/A15*%
X136970000Y-149277500D03*
%TD*%
D12*
%TO.P,IC3,1,A11*%
%TO.N,/A11*%
X133350000Y-95250000D03*
D13*
%TO.P,IC3,2,A12*%
%TO.N,/A12*%
X133350000Y-97790000D03*
%TO.P,IC3,3,A13*%
%TO.N,/A13*%
X133350000Y-100330000D03*
%TO.P,IC3,4,A14*%
%TO.N,/A14*%
X133350000Y-102870000D03*
%TO.P,IC3,5,A15*%
%TO.N,/A15*%
X133350000Y-105410000D03*
%TO.P,IC3,6,CLK*%
%TO.N,/CLK*%
X133350000Y-107950000D03*
%TO.P,IC3,7,D4*%
%TO.N,/DA4*%
X133350000Y-110490000D03*
%TO.P,IC3,8,D3*%
%TO.N,/DA3*%
X133350000Y-113030000D03*
%TO.P,IC3,9,D5*%
%TO.N,/DA5*%
X133350000Y-115570000D03*
%TO.P,IC3,10,D6*%
%TO.N,/DA6*%
X133350000Y-118110000D03*
%TO.P,IC3,11,VCC*%
%TO.N,/+5V*%
X133350000Y-120650000D03*
%TO.P,IC3,12,D2*%
%TO.N,/DA2*%
X133350000Y-123190000D03*
%TO.P,IC3,13,D7*%
%TO.N,/DA7*%
X133350000Y-125730000D03*
%TO.P,IC3,14,D0*%
%TO.N,/DA0*%
X133350000Y-128270000D03*
%TO.P,IC3,15,D1*%
%TO.N,/DA1*%
X133350000Y-130810000D03*
%TO.P,IC3,16,INT*%
%TO.N,/~{INT}*%
X133350000Y-133350000D03*
%TO.P,IC3,17,NMI*%
%TO.N,/~{NMI}*%
X133350000Y-135890000D03*
%TO.P,IC3,18,HALT*%
%TO.N,/~{HALT}*%
X133350000Y-138430000D03*
%TO.P,IC3,19,MREQ*%
%TO.N,/~{MREQ}*%
X133350000Y-140970000D03*
%TO.P,IC3,20,IORQ*%
%TO.N,/~{IOREQ}*%
X133350000Y-143510000D03*
%TO.P,IC3,21,RD*%
%TO.N,/~{RD}*%
X148590000Y-143510000D03*
%TO.P,IC3,22,WR*%
%TO.N,/~{WR}*%
X148590000Y-140970000D03*
%TO.P,IC3,23,BUSAK*%
%TO.N,/~{BUSAK}*%
X148590000Y-138430000D03*
%TO.P,IC3,24,WAIT*%
%TO.N,/~{WAIT}*%
X148590000Y-135890000D03*
%TO.P,IC3,25,BUSRQ*%
%TO.N,/~{BUSRQ}*%
X148590000Y-133350000D03*
%TO.P,IC3,26,RESET*%
%TO.N,/~{RESET}*%
X148590000Y-130810000D03*
%TO.P,IC3,27,M1*%
%TO.N,/~{M1}*%
X148590000Y-128270000D03*
%TO.P,IC3,28,RFSH*%
%TO.N,/~{REFSH}*%
X148590000Y-125730000D03*
%TO.P,IC3,29,GND*%
%TO.N,/GND*%
X148590000Y-123190000D03*
%TO.P,IC3,30,A0*%
%TO.N,/A0*%
X148590000Y-120650000D03*
%TO.P,IC3,31,A1*%
%TO.N,/A1*%
X148590000Y-118110000D03*
%TO.P,IC3,32,A2*%
%TO.N,/A2*%
X148590000Y-115570000D03*
%TO.P,IC3,33,A3*%
%TO.N,/A3*%
X148590000Y-113030000D03*
%TO.P,IC3,34,A4*%
%TO.N,/A4*%
X148590000Y-110490000D03*
%TO.P,IC3,35,A5*%
%TO.N,/A5*%
X148590000Y-107950000D03*
%TO.P,IC3,36,A6*%
%TO.N,/A6*%
X148590000Y-105410000D03*
%TO.P,IC3,37,A7*%
%TO.N,/A7*%
X148590000Y-102870000D03*
%TO.P,IC3,38,A8*%
%TO.N,/A8*%
X148590000Y-100330000D03*
%TO.P,IC3,39,A9*%
%TO.N,/A9*%
X148590000Y-97790000D03*
%TO.P,IC3,40,A10*%
%TO.N,/A10*%
X148590000Y-95250000D03*
%TD*%
D14*
%TO.P,IC1,1,A11*%
%TO.N,/A11*%
X142240000Y-71120000D03*
D15*
%TO.P,IC1,2,A12*%
%TO.N,/A12*%
X139700000Y-68580000D03*
%TO.P,IC1,3,A13*%
%TO.N,/A13*%
X139700000Y-71120000D03*
%TO.P,IC1,4,A14*%
%TO.N,/A14*%
X137160000Y-68580000D03*
%TO.P,IC1,5,A15*%
%TO.N,/A15*%
X137160000Y-71120000D03*
%TO.P,IC1,6,NC*%
%TO.N,unconnected-(IC1-Pad6)*%
X134620000Y-68580000D03*
%TO.P,IC1,7,CLK*%
%TO.N,/CLK*%
X132080000Y-71120000D03*
%TO.P,IC1,8,D4*%
%TO.N,/DA4*%
X134620000Y-71120000D03*
%TO.P,IC1,9,D3*%
%TO.N,/DA3*%
X132080000Y-73660000D03*
%TO.P,IC1,10,D5*%
%TO.N,/DA5*%
X134620000Y-73660000D03*
%TO.P,IC1,11,D6*%
%TO.N,/DA6*%
X132080000Y-76200000D03*
%TO.P,IC1,12,NC*%
%TO.N,unconnected-(IC1-Pad12)*%
X134620000Y-76200000D03*
%TO.P,IC1,13,+5V*%
%TO.N,/+5V*%
X132080000Y-78740000D03*
%TO.P,IC1,14,D2*%
%TO.N,/DA2*%
X134620000Y-78740000D03*
%TO.P,IC1,15,D7*%
%TO.N,/DA7*%
X132080000Y-81280000D03*
%TO.P,IC1,16,D0*%
%TO.N,/DA0*%
X134620000Y-81280000D03*
%TO.P,IC1,17,D1*%
%TO.N,/DA1*%
X132080000Y-83820000D03*
%TO.P,IC1,18,INT*%
%TO.N,/~{INT}*%
X134620000Y-86360000D03*
%TO.P,IC1,19,NMI*%
%TO.N,/~{NMI}*%
X134620000Y-83820000D03*
%TO.P,IC1,20,HALT*%
%TO.N,/~{HALT}*%
X137160000Y-86360000D03*
%TO.P,IC1,21,MREQ*%
%TO.N,/~{MREQ}*%
X137160000Y-83820000D03*
%TO.P,IC1,22,IOREQ*%
%TO.N,/~{IOREQ}*%
X139700000Y-86360000D03*
%TO.P,IC1,23,RD*%
%TO.N,/~{RD}*%
X139700000Y-83820000D03*
%TO.P,IC1,24,NC*%
%TO.N,unconnected-(IC1-Pad24)*%
X142240000Y-86360000D03*
%TO.P,IC1,25,NC*%
%TO.N,unconnected-(IC1-Pad25)*%
X142240000Y-83820000D03*
%TO.P,IC1,26,WR*%
%TO.N,/~{WR}*%
X144780000Y-86360000D03*
%TO.P,IC1,27,BUSACK*%
%TO.N,/~{BUSAK}*%
X144780000Y-83820000D03*
%TO.P,IC1,28,WAIT*%
%TO.N,/~{WAIT}*%
X147320000Y-86360000D03*
%TO.P,IC1,29,BURSREQ*%
%TO.N,/~{BUSRQ}*%
X149860000Y-83820000D03*
%TO.P,IC1,30,RESET*%
%TO.N,/~{RESET}*%
X147320000Y-83820000D03*
%TO.P,IC1,31,M1*%
%TO.N,/~{M1}*%
X149860000Y-81280000D03*
%TO.P,IC1,32,RFSH*%
%TO.N,/~{REFSH}*%
X147320000Y-81280000D03*
%TO.P,IC1,33,GND*%
%TO.N,/GND*%
X149860000Y-78740000D03*
%TO.P,IC1,34,A0*%
%TO.N,/A0*%
X147320000Y-78740000D03*
%TO.P,IC1,35,A1*%
%TO.N,/A1*%
X149860000Y-76200000D03*
%TO.P,IC1,36,A2*%
%TO.N,/A2*%
X147320000Y-76200000D03*
%TO.P,IC1,37,A3*%
%TO.N,/A3*%
X149860000Y-73660000D03*
%TO.P,IC1,38,A4*%
%TO.N,/A4*%
X147320000Y-73660000D03*
%TO.P,IC1,39,A5*%
%TO.N,/A5*%
X149860000Y-71120000D03*
%TO.P,IC1,40,A6*%
%TO.N,/A6*%
X147320000Y-68580000D03*
%TO.P,IC1,41,A7*%
%TO.N,/A7*%
X147320000Y-71120000D03*
%TO.P,IC1,42,A8*%
%TO.N,/A8*%
X144780000Y-68580000D03*
%TO.P,IC1,43,A9*%
%TO.N,/A9*%
X144780000Y-71120000D03*
%TO.P,IC1,44,A10*%
%TO.N,/A10*%
X142240000Y-68580000D03*
%TD*%
D16*
%TO.N,/A14*%
X134590800Y-92134300D03*
%TO.N,/CLK*%
X131004300Y-79738300D03*
%TO.N,/DA0*%
X136795700Y-152255800D03*
%TO.N,/~{NMI}*%
X137770000Y-151222900D03*
%TO.N,/~{IOREQ}*%
X140170000Y-151320800D03*
%TO.N,/~{RD}*%
X141770000Y-152586300D03*
%TO.N,/~{WR}*%
X142570000Y-155647100D03*
%TO.N,/~{BUSAK}*%
X143113500Y-150623000D03*
%TO.N,/~{WAIT}*%
X144170000Y-158925200D03*
%TO.N,/~{BUSRQ}*%
X149231300Y-88672600D03*
X145947800Y-160482500D03*
%TO.N,/~{REFSH}*%
X147211100Y-87800700D03*
%TO.N,/A2*%
X146618000Y-91014600D03*
%TO.N,/A3*%
X146611400Y-92663000D03*
%TO.N,/A4*%
X147616700Y-92648100D03*
%TO.N,/A9*%
X142680800Y-101297800D03*
%TD*%
D17*
%TO.N,/A11*%
X140170000Y-149277500D02*
X140170000Y-148074500D01*
X133350000Y-94149700D02*
X133574700Y-94149700D01*
X142240000Y-71120000D02*
X142240000Y-72131500D01*
X133350000Y-95250000D02*
X133350000Y-94149700D01*
X140157100Y-67562600D02*
X141228500Y-68634000D01*
X141228500Y-68634000D02*
X141228500Y-69097000D01*
X141228500Y-73143000D02*
X142240000Y-72131500D01*
X138430000Y-68418700D02*
X139286100Y-67562600D01*
X139286100Y-67562600D02*
X140157100Y-67562600D01*
X140170000Y-148074500D02*
X141228500Y-147016000D01*
X141228500Y-147016000D02*
X141228500Y-73143000D01*
X138430000Y-89294400D02*
X138430000Y-68418700D01*
X141228500Y-69097000D02*
X142240000Y-70108500D01*
X133574700Y-94149700D02*
X138430000Y-89294400D01*
X142240000Y-71120000D02*
X142240000Y-70108500D01*
%TO.N,/A12*%
X133350000Y-98340100D02*
X133350000Y-98890300D01*
X133350000Y-97790000D02*
X133350000Y-98340100D01*
X133578000Y-98890300D02*
X133350000Y-98890300D01*
X133350000Y-98340100D02*
X140757600Y-90932500D01*
X139370000Y-149277500D02*
X139370000Y-147597600D01*
X140757600Y-69637600D02*
X139700000Y-68580000D01*
X140076600Y-146891000D02*
X140076600Y-105388900D01*
X140757600Y-90932500D02*
X140757600Y-69637600D01*
X139370000Y-147597600D02*
X140076600Y-146891000D01*
X140076600Y-105388900D02*
X133578000Y-98890300D01*
%TO.N,/A13*%
X133350000Y-100330000D02*
X133350000Y-101430300D01*
X138570000Y-147831500D02*
X139676300Y-146725200D01*
X133578000Y-101430300D02*
X133350000Y-101430300D01*
X139676300Y-107528600D02*
X133578000Y-101430300D01*
X138570000Y-149277500D02*
X138570000Y-147831500D01*
X139676300Y-146725200D02*
X139676300Y-107528600D01*
%TO.N,/A14*%
X133548000Y-103970300D02*
X133350000Y-103970300D01*
X133350000Y-102870000D02*
X133350000Y-103970300D01*
X139276000Y-146559400D02*
X139276000Y-109698300D01*
X136031900Y-69708100D02*
X137160000Y-68580000D01*
X136031900Y-90693200D02*
X136031900Y-69708100D01*
X137770000Y-148065400D02*
X139276000Y-146559400D01*
X134590800Y-92134300D02*
X136031900Y-90693200D01*
X137770000Y-149277500D02*
X137770000Y-148065400D01*
X139276000Y-109698300D02*
X133548000Y-103970300D01*
%TO.N,/A15*%
X138875700Y-146393600D02*
X138875700Y-111808000D01*
X133350000Y-105410000D02*
X133350000Y-106510300D01*
X136970000Y-149277500D02*
X136970000Y-148299300D01*
X138875700Y-111808000D02*
X133578000Y-106510300D01*
X133578000Y-106510300D02*
X133350000Y-106510300D01*
X136970000Y-148299300D02*
X138875700Y-146393600D01*
%TO.N,/CLK*%
X136220400Y-148482800D02*
X138475400Y-146227800D01*
X136220400Y-150027100D02*
X136220400Y-148482800D01*
X138475400Y-114038000D02*
X133487700Y-109050300D01*
X133487700Y-109050300D02*
X133350000Y-109050300D01*
X138475400Y-146227800D02*
X138475400Y-114038000D01*
X133350000Y-107950000D02*
X133350000Y-109050300D01*
X131004300Y-79738300D02*
X131004300Y-72195700D01*
X131004300Y-72195700D02*
X132080000Y-71120000D01*
X135307500Y-150940000D02*
X136220400Y-150027100D01*
%TO.N,/DA4*%
X133350000Y-110490000D02*
X133350000Y-111590300D01*
X138075100Y-116087400D02*
X133578000Y-111590300D01*
X134737700Y-151740000D02*
X134266000Y-151268300D01*
X134266000Y-151268300D02*
X134266000Y-150564300D01*
X138075100Y-146062000D02*
X138075100Y-116087400D01*
X135820100Y-149010200D02*
X135820100Y-148317000D01*
X134266000Y-150564300D02*
X135820100Y-149010200D01*
X133578000Y-111590300D02*
X133350000Y-111590300D01*
X135307500Y-151740000D02*
X134737700Y-151740000D01*
X135820100Y-148317000D02*
X138075100Y-146062000D01*
%TO.N,/DA3*%
X133865700Y-151687100D02*
X133865700Y-150398400D01*
X135307500Y-152540000D02*
X134718600Y-152540000D01*
X135019500Y-148551500D02*
X137674800Y-145896200D01*
X134718600Y-152540000D02*
X133865700Y-151687100D01*
X137674800Y-145896200D02*
X137674800Y-117354800D01*
X135019500Y-149244600D02*
X135019500Y-148551500D01*
X137674800Y-117354800D02*
X133350000Y-113030000D01*
X133865700Y-150398400D02*
X135019500Y-149244600D01*
%TO.N,/DA5*%
X133350000Y-114469700D02*
X133212500Y-114469700D01*
X132203900Y-113461100D02*
X132203900Y-86636500D01*
X134699600Y-153340000D02*
X133465400Y-152105800D01*
X133491900Y-74788100D02*
X134620000Y-73660000D01*
X133212500Y-114469700D02*
X132203900Y-113461100D01*
X133491900Y-85348500D02*
X133491900Y-74788100D01*
X133350000Y-115570000D02*
X133350000Y-114469700D01*
X132203900Y-86636500D02*
X133491900Y-85348500D01*
X133465400Y-150232600D02*
X134619200Y-149078800D01*
X133350000Y-115570000D02*
X133350000Y-116670300D01*
X133578000Y-116670300D02*
X133350000Y-116670300D01*
X134619200Y-149078800D02*
X134619200Y-148385700D01*
X133465400Y-152105800D02*
X133465400Y-150232600D01*
X134619200Y-148385700D02*
X137274500Y-145730400D01*
X137274500Y-120366800D02*
X133578000Y-116670300D01*
X135307500Y-153340000D02*
X134699600Y-153340000D01*
X137274500Y-145730400D02*
X137274500Y-120366800D01*
%TO.N,/DA6*%
X134218900Y-148219900D02*
X136874200Y-145564600D01*
X135307500Y-154140000D02*
X134703800Y-154140000D01*
X134218900Y-148913000D02*
X134218900Y-148219900D01*
X136874200Y-121634200D02*
X133350000Y-118110000D01*
X133065100Y-152501300D02*
X133065100Y-150066800D01*
X134703800Y-154140000D02*
X133065100Y-152501300D01*
X136874200Y-145564600D02*
X136874200Y-121634200D01*
X133065100Y-150066800D02*
X134218900Y-148913000D01*
%TO.N,/+5V*%
X133818600Y-148054100D02*
X136473900Y-145398800D01*
X133578000Y-121750300D02*
X133350000Y-121750300D01*
X136473900Y-145398800D02*
X136473900Y-124646200D01*
X133091600Y-84782400D02*
X131803500Y-86070500D01*
X133350000Y-120650000D02*
X133350000Y-119549700D01*
X131803500Y-118231200D02*
X133122000Y-119549700D01*
X136473900Y-124646200D02*
X133578000Y-121750300D01*
X133122000Y-119549700D02*
X133350000Y-119549700D01*
X133091600Y-79751600D02*
X133091600Y-84782400D01*
X132664800Y-152861600D02*
X132664800Y-149901000D01*
X133818600Y-148747200D02*
X133818600Y-148054100D01*
X134743200Y-154940000D02*
X132664800Y-152861600D01*
X135307500Y-154940000D02*
X134743200Y-154940000D01*
X132664800Y-149901000D02*
X133818600Y-148747200D01*
X131803500Y-86070500D02*
X131803500Y-118231200D01*
X132080000Y-78740000D02*
X133091600Y-79751600D01*
X133350000Y-120650000D02*
X133350000Y-121750300D01*
%TO.N,/DA2*%
X133484700Y-124290300D02*
X133350000Y-124290300D01*
X132264500Y-153282400D02*
X132264500Y-149735200D01*
X136073600Y-126879200D02*
X133484700Y-124290300D01*
X133418300Y-147888300D02*
X136073600Y-145233000D01*
X132264500Y-149735200D02*
X133418300Y-148581400D01*
X135307500Y-155740000D02*
X134722100Y-155740000D01*
X134722100Y-155740000D02*
X132264500Y-153282400D01*
X133350000Y-123190000D02*
X133350000Y-124290300D01*
X136073600Y-145233000D02*
X136073600Y-126879200D01*
X133418300Y-148581400D02*
X133418300Y-147888300D01*
%TO.N,/DA7*%
X133018000Y-148132400D02*
X133018000Y-147722500D01*
X133018000Y-147722500D02*
X135673300Y-145067200D01*
X131864200Y-153707100D02*
X131864200Y-149286200D01*
X134697100Y-156540000D02*
X131864200Y-153707100D01*
X135307500Y-156540000D02*
X134697100Y-156540000D01*
X133350000Y-125730000D02*
X133350000Y-126830300D01*
X135673300Y-145067200D02*
X135673300Y-128925600D01*
X135673300Y-128925600D02*
X133578000Y-126830300D01*
X131864200Y-149286200D02*
X133018000Y-148132400D01*
X133578000Y-126830300D02*
X133350000Y-126830300D01*
%TO.N,/DA0*%
X135872600Y-157340000D02*
X136795700Y-156416900D01*
X135307500Y-157340000D02*
X135872600Y-157340000D01*
X136795700Y-156416900D02*
X136795700Y-152255800D01*
%TO.N,/DA1*%
X132617700Y-147966600D02*
X131463900Y-149120400D01*
X132080000Y-83820000D02*
X131403200Y-84496800D01*
X133212500Y-129709700D02*
X133350000Y-129709700D01*
X134739600Y-158140000D02*
X135307500Y-158140000D01*
X131403200Y-127900400D02*
X133212500Y-129709700D01*
X135266000Y-133598300D02*
X135266000Y-144616000D01*
X135266000Y-144616000D02*
X132617700Y-147264300D01*
X131463900Y-149120400D02*
X131463900Y-154864300D01*
X133578000Y-131910300D02*
X135266000Y-133598300D01*
X133350000Y-130810000D02*
X133350000Y-131910300D01*
X131403200Y-84496800D02*
X131403200Y-127900400D01*
X133350000Y-130810000D02*
X133350000Y-129709700D01*
X131463900Y-154864300D02*
X134739600Y-158140000D01*
X133350000Y-131910300D02*
X133578000Y-131910300D01*
X132617700Y-147264300D02*
X132617700Y-147966600D01*
%TO.N,/~{INT}*%
X132217400Y-147800800D02*
X131063600Y-148954600D01*
X135583600Y-160602500D02*
X136970000Y-160602500D01*
X133578000Y-134450300D02*
X134856200Y-135728500D01*
X131063600Y-156082500D02*
X135583600Y-160602500D01*
X131063600Y-148954600D02*
X131063600Y-156082500D01*
X133350000Y-134450300D02*
X133578000Y-134450300D01*
X133350000Y-133350000D02*
X133350000Y-134450300D01*
X134856200Y-144186000D02*
X132217400Y-146824800D01*
X134856200Y-135728500D02*
X134856200Y-144186000D01*
X132217400Y-146824800D02*
X132217400Y-147800800D01*
%TO.N,/~{NMI}*%
X137770000Y-160602500D02*
X137770000Y-151222900D01*
%TO.N,/~{HALT}*%
X134455800Y-144020300D02*
X134455800Y-140408100D01*
X131817100Y-147635000D02*
X131817100Y-146659000D01*
X138570000Y-160602500D02*
X138570000Y-161220100D01*
X131817100Y-146659000D02*
X134455800Y-144020300D01*
X138144400Y-161645700D02*
X136060500Y-161645700D01*
X130663300Y-156248500D02*
X130663300Y-148788800D01*
X136060500Y-161645700D02*
X130663300Y-156248500D01*
X134455800Y-140408100D02*
X133578000Y-139530300D01*
X138570000Y-161220100D02*
X138144400Y-161645700D01*
X133350000Y-138430000D02*
X133350000Y-139530300D01*
X130663300Y-148788800D02*
X131817100Y-147635000D01*
X133578000Y-139530300D02*
X133350000Y-139530300D01*
%TO.N,/~{MREQ}*%
X133350000Y-140970000D02*
X133350000Y-142070300D01*
X133350000Y-142070300D02*
X133212500Y-142070300D01*
X139370000Y-161234200D02*
X139370000Y-160602500D01*
X130250100Y-156402800D02*
X135893400Y-162046100D01*
X133212500Y-142070300D02*
X131255400Y-144027400D01*
X131255400Y-144027400D02*
X131255400Y-147333300D01*
X130250100Y-148338600D02*
X130250100Y-156402800D01*
X135893400Y-162046100D02*
X138558100Y-162046100D01*
X138558100Y-162046100D02*
X139370000Y-161234200D01*
X131255400Y-147333300D02*
X130250100Y-148338600D01*
%TO.N,/~{IOREQ}*%
X140170000Y-160602500D02*
X140170000Y-151320800D01*
%TO.N,/~{RD}*%
X141770000Y-152586300D02*
X141770000Y-160602500D01*
%TO.N,/~{WR}*%
X142570000Y-160602500D02*
X142570000Y-155647100D01*
%TO.N,/~{BUSAK}*%
X143370000Y-160602500D02*
X143370000Y-150879500D01*
X143370000Y-150879500D02*
X143113500Y-150623000D01*
%TO.N,/~{WAIT}*%
X144170000Y-160602500D02*
X144170000Y-158925200D01*
%TO.N,/~{BUSRQ}*%
X149231300Y-84448700D02*
X149860000Y-83820000D01*
X149231300Y-88672600D02*
X149231300Y-84448700D01*
X145827800Y-160602500D02*
X145947800Y-160482500D01*
X144970000Y-160602500D02*
X145827800Y-160602500D01*
%TO.N,/~{RESET}*%
X148590000Y-130810000D02*
X148590000Y-131910300D01*
X150478100Y-155717500D02*
X150478100Y-148538300D01*
X150206000Y-148266200D02*
X150206000Y-133298300D01*
X150206000Y-133298300D02*
X148818000Y-131910300D01*
X147255600Y-158940000D02*
X150478100Y-155717500D01*
X150478100Y-148538300D02*
X150206000Y-148266200D01*
X148818000Y-131910300D02*
X148590000Y-131910300D01*
X146632500Y-158940000D02*
X147255600Y-158940000D01*
%TO.N,/~{M1}*%
X150610000Y-128382000D02*
X150498000Y-128270000D01*
X149690300Y-128270000D02*
X150498000Y-128270000D01*
X150878400Y-156108100D02*
X150878400Y-148372500D01*
X146041300Y-158140000D02*
X145594200Y-158587100D01*
X145804600Y-159543900D02*
X147442600Y-159543900D01*
X150521100Y-89977600D02*
X151290900Y-89207800D01*
X151290900Y-89207800D02*
X151290900Y-82710900D01*
X151290900Y-82710900D02*
X149860000Y-81280000D01*
X150610000Y-148104100D02*
X150610000Y-128382000D01*
X148590000Y-128270000D02*
X149690300Y-128270000D01*
X147442600Y-159543900D02*
X150878400Y-156108100D01*
X150878400Y-148372500D02*
X150610000Y-148104100D01*
X150521100Y-128246900D02*
X150521100Y-89977600D01*
X145594200Y-158587100D02*
X145594200Y-159333500D01*
X150498000Y-128270000D02*
X150521100Y-128246900D01*
X145594200Y-159333500D02*
X145804600Y-159543900D01*
X146632500Y-158140000D02*
X146041300Y-158140000D01*
%TO.N,/~{REFSH}*%
X147212900Y-157340000D02*
X150077800Y-154475100D01*
X147328400Y-87800700D02*
X148381500Y-86747600D01*
X146632500Y-157340000D02*
X147212900Y-157340000D01*
X148590000Y-125730000D02*
X148590000Y-126830300D01*
X149803700Y-146723900D02*
X147464400Y-144384600D01*
X150077800Y-154475100D02*
X150077800Y-148704100D01*
X147464400Y-127727900D02*
X148362000Y-126830300D01*
X149803700Y-148430000D02*
X149803700Y-146723900D01*
X148381500Y-86747600D02*
X148381500Y-83210600D01*
X147464400Y-144384600D02*
X147464400Y-127727900D01*
X148381500Y-83210600D02*
X147320000Y-82149100D01*
X148362000Y-126830300D02*
X148590000Y-126830300D01*
X147320000Y-82149100D02*
X147320000Y-81280000D01*
X147211100Y-87800700D02*
X147328400Y-87800700D01*
X150077800Y-148704100D02*
X149803700Y-148430000D01*
%TO.N,/GND*%
X146632500Y-156540000D02*
X147233800Y-156540000D01*
X149355300Y-146885100D02*
X147053900Y-144583700D01*
X150193000Y-82691500D02*
X149776700Y-82691500D01*
X147233800Y-156540000D02*
X149677500Y-154096300D01*
X149355300Y-148547700D02*
X149355300Y-146885100D01*
X148827800Y-79772200D02*
X149860000Y-78740000D01*
X149677500Y-148869900D02*
X149355300Y-148547700D01*
X147053900Y-125598400D02*
X148362000Y-124290300D01*
X148590000Y-123190000D02*
X148590000Y-122089700D01*
X150886700Y-83385200D02*
X150193000Y-82691500D01*
X148827800Y-81742600D02*
X148827800Y-79772200D01*
X149677500Y-154096300D02*
X149677500Y-148869900D01*
X150097800Y-120809900D02*
X150097800Y-85573100D01*
X148362000Y-124290300D02*
X148590000Y-124290300D01*
X148818000Y-122089700D02*
X150097800Y-120809900D01*
X150886700Y-84784200D02*
X150886700Y-83385200D01*
X149776700Y-82691500D02*
X148827800Y-81742600D01*
X150097800Y-85573100D02*
X150886700Y-84784200D01*
X148590000Y-122089700D02*
X148818000Y-122089700D01*
X147053900Y-144583700D02*
X147053900Y-125598400D01*
X148590000Y-123190000D02*
X148590000Y-124290300D01*
%TO.N,/A0*%
X146632500Y-155740000D02*
X147237000Y-155740000D01*
X149277200Y-149035700D02*
X148943100Y-148701600D01*
X148943100Y-148701600D02*
X148943100Y-147322000D01*
X148943100Y-147322000D02*
X146653600Y-145032500D01*
X146653600Y-145032500D02*
X146653600Y-122586400D01*
X147237000Y-155740000D02*
X149277200Y-153699800D01*
X149277200Y-153699800D02*
X149277200Y-149035700D01*
X146653600Y-122586400D02*
X148590000Y-120650000D01*
%TO.N,/A1*%
X146253300Y-121390400D02*
X148433400Y-119210300D01*
X148727500Y-117009700D02*
X149692800Y-116044400D01*
X148433400Y-119210300D02*
X148590000Y-119210300D01*
X148782000Y-82842800D02*
X148381600Y-82442400D01*
X148590000Y-117009700D02*
X148727500Y-117009700D01*
X148519300Y-147747400D02*
X146253300Y-145481400D01*
X148519300Y-148843900D02*
X148519300Y-147747400D01*
X148876900Y-149201500D02*
X148519300Y-148843900D01*
X148477700Y-88243700D02*
X148782000Y-87939400D01*
X149692800Y-90410300D02*
X148477700Y-89195200D01*
X148381600Y-77678400D02*
X149860000Y-76200000D01*
X146632500Y-154940000D02*
X147242700Y-154940000D01*
X148590000Y-118110000D02*
X148590000Y-117009700D01*
X148381600Y-82442400D02*
X148381600Y-77678400D01*
X149692800Y-116044400D02*
X149692800Y-90410300D01*
X148590000Y-118110000D02*
X148590000Y-119210300D01*
X146253300Y-145481400D02*
X146253300Y-121390400D01*
X148782000Y-87939400D02*
X148782000Y-82842800D01*
X147242700Y-154940000D02*
X148876900Y-153305800D01*
X148876900Y-153305800D02*
X148876900Y-149201500D01*
X148477700Y-89195200D02*
X148477700Y-88243700D01*
%TO.N,/A2*%
X146297900Y-90694500D02*
X146618000Y-91014600D01*
X147320000Y-76200000D02*
X146297900Y-77222100D01*
X145853000Y-145647200D02*
X145853000Y-118307000D01*
X146297900Y-77222100D02*
X146297900Y-90694500D01*
X148476600Y-149367300D02*
X148076300Y-148967000D01*
X145853000Y-118307000D02*
X148590000Y-115570000D01*
X146632500Y-154140000D02*
X147196000Y-154140000D01*
X148476600Y-152859400D02*
X148476600Y-149367300D01*
X147196000Y-154140000D02*
X148476600Y-152859400D01*
X148076300Y-147870500D02*
X145853000Y-145647200D01*
X148076300Y-148967000D02*
X148076300Y-147870500D01*
%TO.N,/A3*%
X148362000Y-114130300D02*
X148590000Y-114130300D01*
X143705100Y-75776000D02*
X143705100Y-89756700D01*
X148590000Y-113030000D02*
X148590000Y-114130300D01*
X148076300Y-152462000D02*
X148076300Y-149567600D01*
X148828100Y-72628100D02*
X146853000Y-72628100D01*
X146985400Y-147628800D02*
X145420800Y-146064200D01*
X149860000Y-73660000D02*
X148828100Y-72628100D01*
X147198300Y-153340000D02*
X148076300Y-152462000D01*
X146632500Y-153340000D02*
X147198300Y-153340000D01*
X146985400Y-148476700D02*
X146985400Y-147628800D01*
X145420800Y-117071500D02*
X148362000Y-114130300D01*
X148076300Y-149567600D02*
X146985400Y-148476700D01*
X146853000Y-72628100D02*
X143705100Y-75776000D01*
X145420800Y-146064200D02*
X145420800Y-117071500D01*
X143705100Y-89756700D02*
X146611400Y-92663000D01*
%TO.N,/A4*%
X145897600Y-75082400D02*
X145897600Y-91284600D01*
X146931200Y-91962600D02*
X147616700Y-92648100D01*
X145894500Y-147104000D02*
X145894500Y-147952100D01*
X145020500Y-146230000D02*
X145894500Y-147104000D01*
X146575600Y-91962600D02*
X146931200Y-91962600D01*
X145020500Y-114994600D02*
X145020500Y-146230000D01*
X145894500Y-147952100D02*
X147675800Y-149733400D01*
X147675800Y-149733400D02*
X147675800Y-152064300D01*
X147320000Y-73660000D02*
X145897600Y-75082400D01*
X148590000Y-110490000D02*
X148590000Y-111590300D01*
X147200100Y-152540000D02*
X146632500Y-152540000D01*
X148590000Y-111590300D02*
X148424800Y-111590300D01*
X145897600Y-91284600D02*
X146575600Y-91962600D01*
X147675800Y-152064300D02*
X147200100Y-152540000D01*
X148424800Y-111590300D02*
X145020500Y-114994600D01*
%TO.N,/A5*%
X144620200Y-146678700D02*
X145494200Y-147552700D01*
X144620200Y-112792100D02*
X144620200Y-146678700D01*
X148362000Y-109050300D02*
X144620200Y-112792100D01*
X145494200Y-148117900D02*
X145566300Y-148190000D01*
X145494200Y-147552700D02*
X145494200Y-148117900D01*
X148590000Y-109050300D02*
X148362000Y-109050300D01*
X145566300Y-148190000D02*
X145566300Y-151241700D01*
X145566300Y-151241700D02*
X146064600Y-151740000D01*
X148590000Y-107950000D02*
X148590000Y-109050300D01*
X146064600Y-151740000D02*
X146632500Y-151740000D01*
%TO.N,/A6*%
X148590000Y-105410000D02*
X148590000Y-106510300D01*
X144219900Y-110652400D02*
X144219900Y-146844600D01*
X144970000Y-147594700D02*
X144970000Y-149277500D01*
X144219900Y-146844600D02*
X144970000Y-147594700D01*
X148590000Y-106510300D02*
X148362000Y-106510300D01*
X148362000Y-106510300D02*
X144219900Y-110652400D01*
%TO.N,/A7*%
X148452500Y-103970300D02*
X143819600Y-108603200D01*
X148590000Y-102870000D02*
X148590000Y-103970300D01*
X148590000Y-103970300D02*
X148452500Y-103970300D01*
X143819600Y-108603200D02*
X143819600Y-147010400D01*
X144170000Y-147360800D02*
X144170000Y-149277500D01*
X143819600Y-147010400D02*
X144170000Y-147360800D01*
%TO.N,/A8*%
X148590000Y-101430300D02*
X148464600Y-101430300D01*
X143370000Y-106524900D02*
X143370000Y-149277500D01*
X148590000Y-100330000D02*
X148590000Y-101430300D01*
X148464600Y-101430300D02*
X143370000Y-106524900D01*
%TO.N,/A9*%
X147489700Y-97790000D02*
X146188600Y-97790000D01*
X142680800Y-149166700D02*
X142570000Y-149277500D01*
X148590000Y-97790000D02*
X147489700Y-97790000D01*
X146188600Y-97790000D02*
X142680800Y-101297800D01*
X142680800Y-101297800D02*
X142680800Y-149166700D01*
%TO.N,/A10*%
X143301700Y-91062000D02*
X143301700Y-69641700D01*
X147489700Y-95250000D02*
X141770000Y-100969700D01*
X141770000Y-100969700D02*
X141770000Y-149277500D01*
X148590000Y-95250000D02*
X147489700Y-95250000D01*
X147489700Y-95250000D02*
X143301700Y-91062000D01*
X143301700Y-69641700D02*
X142240000Y-68580000D01*
%TD*%
M02*
