M48
; DRILL file {KiCad (6.0.4)} date Thu May  5 02:24:43 2022
; FORMAT={-:-/ absolute / inch / decimal}
; #@! TF.CreationDate,2022-05-05T02:24:43+01:00
; #@! TF.GenerationSoftware,Kicad,Pcbnew,(6.0.4)
; #@! TF.FileFunction,Plated,1,2,PTH
FMAT,2
INCH
; #@! TA.AperFunction,Plated,PTH,ViaDrill
T1C0.0157
; #@! TA.AperFunction,Plated,PTH,ComponentDrill
T2C0.0315
%
G90
G05
T1
X5.1576Y-3.1393
X5.2989Y-3.6273
X5.3857Y-5.9943
X5.424Y-5.9537
X5.5185Y-5.9575
X5.5815Y-6.0073
X5.613Y-6.1278
X5.6174Y-3.9881
X5.6344Y-5.93
X5.676Y-6.2569
X5.746Y-6.3182
X5.7721Y-3.6481
X5.7724Y-3.5833
X5.7957Y-3.4567
X5.8117Y-3.6476
X5.8752Y-3.491
T2
X5.2Y-2.8
X5.2Y-2.9
X5.2Y-3.0
X5.2Y-3.1
X5.2Y-3.2
X5.2Y-3.3
X5.25Y-3.75
X5.25Y-3.85
X5.25Y-3.95
X5.25Y-4.05
X5.25Y-4.15
X5.25Y-4.25
X5.25Y-4.35
X5.25Y-4.45
X5.25Y-4.55
X5.25Y-4.65
X5.25Y-4.75
X5.25Y-4.85
X5.25Y-4.95
X5.25Y-5.05
X5.25Y-5.15
X5.25Y-5.25
X5.25Y-5.35
X5.25Y-5.45
X5.25Y-5.55
X5.25Y-5.65
X5.3Y-2.7
X5.3Y-2.8
X5.3Y-2.9
X5.3Y-3.0
X5.3Y-3.1
X5.3Y-3.2
X5.3Y-3.3
X5.3Y-3.4
X5.4Y-2.7
X5.4Y-2.8
X5.4Y-3.3
X5.4Y-3.4
X5.5Y-2.7
X5.5Y-2.8
X5.5Y-3.3
X5.5Y-3.4
X5.6Y-2.7
X5.6Y-2.8
X5.6Y-3.3
X5.6Y-3.4
X5.7Y-2.7
X5.7Y-2.8
X5.7Y-3.3
X5.7Y-3.4
X5.8Y-2.7
X5.8Y-2.8
X5.8Y-2.9
X5.8Y-3.0
X5.8Y-3.1
X5.8Y-3.2
X5.8Y-3.3
X5.8Y-3.4
X5.85Y-3.75
X5.85Y-3.85
X5.85Y-3.95
X5.85Y-4.05
X5.85Y-4.15
X5.85Y-4.25
X5.85Y-4.35
X5.85Y-4.45
X5.85Y-4.55
X5.85Y-4.65
X5.85Y-4.75
X5.85Y-4.85
X5.85Y-4.95
X5.85Y-5.05
X5.85Y-5.15
X5.85Y-5.25
X5.85Y-5.35
X5.85Y-5.45
X5.85Y-5.55
X5.85Y-5.65
X5.9Y-2.8
X5.9Y-2.9
X5.9Y-3.0
X5.9Y-3.1
X5.9Y-3.2
X5.9Y-3.3
T0
M30
