%TF.GenerationSoftware,KiCad,Pcbnew,(6.0.4)*%
%TF.CreationDate,2022-05-05T02:24:40+01:00*%
%TF.ProjectId,Z80 QFP & LCC to DIL,5a383020-5146-4502-9026-204c43432074,rev?*%
%TF.SameCoordinates,Original*%
%TF.FileFunction,Paste,Top*%
%TF.FilePolarity,Positive*%
%FSLAX46Y46*%
G04 Gerber Fmt 4.6, Leading zero omitted, Abs format (unit mm)*
G04 Created by KiCad (PCBNEW (6.0.4)) date 2022-05-05 02:24:40*
%MOMM*%
%LPD*%
G01*
G04 APERTURE LIST*
G04 Aperture macros list*
%AMRoundRect*
0 Rectangle with rounded corners*
0 $1 Rounding radius*
0 $2 $3 $4 $5 $6 $7 $8 $9 X,Y pos of 4 corners*
0 Add a 4 corners polygon primitive as box body*
4,1,4,$2,$3,$4,$5,$6,$7,$8,$9,$2,$3,0*
0 Add four circle primitives for the rounded corners*
1,1,$1+$1,$2,$3*
1,1,$1+$1,$4,$5*
1,1,$1+$1,$6,$7*
1,1,$1+$1,$8,$9*
0 Add four rect primitives between the rounded corners*
20,1,$1+$1,$2,$3,$4,$5,0*
20,1,$1+$1,$4,$5,$6,$7,0*
20,1,$1+$1,$6,$7,$8,$9,0*
20,1,$1+$1,$8,$9,$2,$3,0*%
G04 Aperture macros list end*
%ADD10RoundRect,0.137500X-0.600000X-0.137500X0.600000X-0.137500X0.600000X0.137500X-0.600000X0.137500X0*%
%ADD11RoundRect,0.137500X-0.137500X-0.600000X0.137500X-0.600000X0.137500X0.600000X-0.137500X0.600000X0*%
G04 APERTURE END LIST*
D10*
%TO.C,IC2*%
X135307500Y-150940000D03*
X135307500Y-151740000D03*
X135307500Y-152540000D03*
X135307500Y-153340000D03*
X135307500Y-154140000D03*
X135307500Y-154940000D03*
X135307500Y-155740000D03*
X135307500Y-156540000D03*
X135307500Y-157340000D03*
X135307500Y-158140000D03*
X135307500Y-158940000D03*
D11*
X136970000Y-160602500D03*
X137770000Y-160602500D03*
X138570000Y-160602500D03*
X139370000Y-160602500D03*
X140170000Y-160602500D03*
X140970000Y-160602500D03*
X141770000Y-160602500D03*
X142570000Y-160602500D03*
X143370000Y-160602500D03*
X144170000Y-160602500D03*
X144970000Y-160602500D03*
D10*
X146632500Y-158940000D03*
X146632500Y-158140000D03*
X146632500Y-157340000D03*
X146632500Y-156540000D03*
X146632500Y-155740000D03*
X146632500Y-154940000D03*
X146632500Y-154140000D03*
X146632500Y-153340000D03*
X146632500Y-152540000D03*
X146632500Y-151740000D03*
X146632500Y-150940000D03*
D11*
X144970000Y-149277500D03*
X144170000Y-149277500D03*
X143370000Y-149277500D03*
X142570000Y-149277500D03*
X141770000Y-149277500D03*
X140970000Y-149277500D03*
X140170000Y-149277500D03*
X139370000Y-149277500D03*
X138570000Y-149277500D03*
X137770000Y-149277500D03*
X136970000Y-149277500D03*
%TD*%
M02*
