%TF.GenerationSoftware,KiCad,Pcbnew,(6.0.4)*%
%TF.CreationDate,2022-05-05T02:24:40+01:00*%
%TF.ProjectId,Z80 QFP & LCC to DIL,5a383020-5146-4502-9026-204c43432074,rev?*%
%TF.SameCoordinates,Original*%
%TF.FileFunction,Copper,L2,Bot*%
%TF.FilePolarity,Positive*%
%FSLAX46Y46*%
G04 Gerber Fmt 4.6, Leading zero omitted, Abs format (unit mm)*
G04 Created by KiCad (PCBNEW (6.0.4)) date 2022-05-05 02:24:40*
%MOMM*%
%LPD*%
G01*
G04 APERTURE LIST*
%TA.AperFunction,ComponentPad*%
%ADD10R,1.600000X1.600000*%
%TD*%
%TA.AperFunction,ComponentPad*%
%ADD11O,1.600000X1.600000*%
%TD*%
%TA.AperFunction,ComponentPad*%
%ADD12R,1.422400X1.422400*%
%TD*%
%TA.AperFunction,ComponentPad*%
%ADD13C,1.422400*%
%TD*%
%TA.AperFunction,ViaPad*%
%ADD14C,0.800000*%
%TD*%
%TA.AperFunction,Conductor*%
%ADD15C,0.200000*%
%TD*%
G04 APERTURE END LIST*
D10*
%TO.P,IC3,1,A11*%
%TO.N,/A11*%
X133350000Y-95250000D03*
D11*
%TO.P,IC3,2,A12*%
%TO.N,/A12*%
X133350000Y-97790000D03*
%TO.P,IC3,3,A13*%
%TO.N,/A13*%
X133350000Y-100330000D03*
%TO.P,IC3,4,A14*%
%TO.N,/A14*%
X133350000Y-102870000D03*
%TO.P,IC3,5,A15*%
%TO.N,/A15*%
X133350000Y-105410000D03*
%TO.P,IC3,6,CLK*%
%TO.N,/CLK*%
X133350000Y-107950000D03*
%TO.P,IC3,7,D4*%
%TO.N,/DA4*%
X133350000Y-110490000D03*
%TO.P,IC3,8,D3*%
%TO.N,/DA3*%
X133350000Y-113030000D03*
%TO.P,IC3,9,D5*%
%TO.N,/DA5*%
X133350000Y-115570000D03*
%TO.P,IC3,10,D6*%
%TO.N,/DA6*%
X133350000Y-118110000D03*
%TO.P,IC3,11,VCC*%
%TO.N,/+5V*%
X133350000Y-120650000D03*
%TO.P,IC3,12,D2*%
%TO.N,/DA2*%
X133350000Y-123190000D03*
%TO.P,IC3,13,D7*%
%TO.N,/DA7*%
X133350000Y-125730000D03*
%TO.P,IC3,14,D0*%
%TO.N,/DA0*%
X133350000Y-128270000D03*
%TO.P,IC3,15,D1*%
%TO.N,/DA1*%
X133350000Y-130810000D03*
%TO.P,IC3,16,INT*%
%TO.N,/~{INT}*%
X133350000Y-133350000D03*
%TO.P,IC3,17,NMI*%
%TO.N,/~{NMI}*%
X133350000Y-135890000D03*
%TO.P,IC3,18,HALT*%
%TO.N,/~{HALT}*%
X133350000Y-138430000D03*
%TO.P,IC3,19,MREQ*%
%TO.N,/~{MREQ}*%
X133350000Y-140970000D03*
%TO.P,IC3,20,IORQ*%
%TO.N,/~{IOREQ}*%
X133350000Y-143510000D03*
%TO.P,IC3,21,RD*%
%TO.N,/~{RD}*%
X148590000Y-143510000D03*
%TO.P,IC3,22,WR*%
%TO.N,/~{WR}*%
X148590000Y-140970000D03*
%TO.P,IC3,23,BUSAK*%
%TO.N,/~{BUSAK}*%
X148590000Y-138430000D03*
%TO.P,IC3,24,WAIT*%
%TO.N,/~{WAIT}*%
X148590000Y-135890000D03*
%TO.P,IC3,25,BUSRQ*%
%TO.N,/~{BUSRQ}*%
X148590000Y-133350000D03*
%TO.P,IC3,26,RESET*%
%TO.N,/~{RESET}*%
X148590000Y-130810000D03*
%TO.P,IC3,27,M1*%
%TO.N,/~{M1}*%
X148590000Y-128270000D03*
%TO.P,IC3,28,RFSH*%
%TO.N,/~{REFSH}*%
X148590000Y-125730000D03*
%TO.P,IC3,29,GND*%
%TO.N,/GND*%
X148590000Y-123190000D03*
%TO.P,IC3,30,A0*%
%TO.N,/A0*%
X148590000Y-120650000D03*
%TO.P,IC3,31,A1*%
%TO.N,/A1*%
X148590000Y-118110000D03*
%TO.P,IC3,32,A2*%
%TO.N,/A2*%
X148590000Y-115570000D03*
%TO.P,IC3,33,A3*%
%TO.N,/A3*%
X148590000Y-113030000D03*
%TO.P,IC3,34,A4*%
%TO.N,/A4*%
X148590000Y-110490000D03*
%TO.P,IC3,35,A5*%
%TO.N,/A5*%
X148590000Y-107950000D03*
%TO.P,IC3,36,A6*%
%TO.N,/A6*%
X148590000Y-105410000D03*
%TO.P,IC3,37,A7*%
%TO.N,/A7*%
X148590000Y-102870000D03*
%TO.P,IC3,38,A8*%
%TO.N,/A8*%
X148590000Y-100330000D03*
%TO.P,IC3,39,A9*%
%TO.N,/A9*%
X148590000Y-97790000D03*
%TO.P,IC3,40,A10*%
%TO.N,/A10*%
X148590000Y-95250000D03*
%TD*%
D12*
%TO.P,IC1,1,A11*%
%TO.N,/A11*%
X142240000Y-71120000D03*
D13*
%TO.P,IC1,2,A12*%
%TO.N,/A12*%
X139700000Y-68580000D03*
%TO.P,IC1,3,A13*%
%TO.N,/A13*%
X139700000Y-71120000D03*
%TO.P,IC1,4,A14*%
%TO.N,/A14*%
X137160000Y-68580000D03*
%TO.P,IC1,5,A15*%
%TO.N,/A15*%
X137160000Y-71120000D03*
%TO.P,IC1,6,NC*%
%TO.N,unconnected-(IC1-Pad6)*%
X134620000Y-68580000D03*
%TO.P,IC1,7,CLK*%
%TO.N,/CLK*%
X132080000Y-71120000D03*
%TO.P,IC1,8,D4*%
%TO.N,/DA4*%
X134620000Y-71120000D03*
%TO.P,IC1,9,D3*%
%TO.N,/DA3*%
X132080000Y-73660000D03*
%TO.P,IC1,10,D5*%
%TO.N,/DA5*%
X134620000Y-73660000D03*
%TO.P,IC1,11,D6*%
%TO.N,/DA6*%
X132080000Y-76200000D03*
%TO.P,IC1,12,NC*%
%TO.N,unconnected-(IC1-Pad12)*%
X134620000Y-76200000D03*
%TO.P,IC1,13,+5V*%
%TO.N,/+5V*%
X132080000Y-78740000D03*
%TO.P,IC1,14,D2*%
%TO.N,/DA2*%
X134620000Y-78740000D03*
%TO.P,IC1,15,D7*%
%TO.N,/DA7*%
X132080000Y-81280000D03*
%TO.P,IC1,16,D0*%
%TO.N,/DA0*%
X134620000Y-81280000D03*
%TO.P,IC1,17,D1*%
%TO.N,/DA1*%
X132080000Y-83820000D03*
%TO.P,IC1,18,INT*%
%TO.N,/~{INT}*%
X134620000Y-86360000D03*
%TO.P,IC1,19,NMI*%
%TO.N,/~{NMI}*%
X134620000Y-83820000D03*
%TO.P,IC1,20,HALT*%
%TO.N,/~{HALT}*%
X137160000Y-86360000D03*
%TO.P,IC1,21,MREQ*%
%TO.N,/~{MREQ}*%
X137160000Y-83820000D03*
%TO.P,IC1,22,IOREQ*%
%TO.N,/~{IOREQ}*%
X139700000Y-86360000D03*
%TO.P,IC1,23,RD*%
%TO.N,/~{RD}*%
X139700000Y-83820000D03*
%TO.P,IC1,24,NC*%
%TO.N,unconnected-(IC1-Pad24)*%
X142240000Y-86360000D03*
%TO.P,IC1,25,NC*%
%TO.N,unconnected-(IC1-Pad25)*%
X142240000Y-83820000D03*
%TO.P,IC1,26,WR*%
%TO.N,/~{WR}*%
X144780000Y-86360000D03*
%TO.P,IC1,27,BUSACK*%
%TO.N,/~{BUSAK}*%
X144780000Y-83820000D03*
%TO.P,IC1,28,WAIT*%
%TO.N,/~{WAIT}*%
X147320000Y-86360000D03*
%TO.P,IC1,29,BURSREQ*%
%TO.N,/~{BUSRQ}*%
X149860000Y-83820000D03*
%TO.P,IC1,30,RESET*%
%TO.N,/~{RESET}*%
X147320000Y-83820000D03*
%TO.P,IC1,31,M1*%
%TO.N,/~{M1}*%
X149860000Y-81280000D03*
%TO.P,IC1,32,RFSH*%
%TO.N,/~{REFSH}*%
X147320000Y-81280000D03*
%TO.P,IC1,33,GND*%
%TO.N,/GND*%
X149860000Y-78740000D03*
%TO.P,IC1,34,A0*%
%TO.N,/A0*%
X147320000Y-78740000D03*
%TO.P,IC1,35,A1*%
%TO.N,/A1*%
X149860000Y-76200000D03*
%TO.P,IC1,36,A2*%
%TO.N,/A2*%
X147320000Y-76200000D03*
%TO.P,IC1,37,A3*%
%TO.N,/A3*%
X149860000Y-73660000D03*
%TO.P,IC1,38,A4*%
%TO.N,/A4*%
X147320000Y-73660000D03*
%TO.P,IC1,39,A5*%
%TO.N,/A5*%
X149860000Y-71120000D03*
%TO.P,IC1,40,A6*%
%TO.N,/A6*%
X147320000Y-68580000D03*
%TO.P,IC1,41,A7*%
%TO.N,/A7*%
X147320000Y-71120000D03*
%TO.P,IC1,42,A8*%
%TO.N,/A8*%
X144780000Y-68580000D03*
%TO.P,IC1,43,A9*%
%TO.N,/A9*%
X144780000Y-71120000D03*
%TO.P,IC1,44,A10*%
%TO.N,/A10*%
X142240000Y-68580000D03*
%TD*%
D14*
%TO.N,/A14*%
X134590800Y-92134300D03*
%TO.N,/CLK*%
X131004300Y-79738300D03*
%TO.N,/DA0*%
X136795700Y-152255800D03*
%TO.N,/~{NMI}*%
X137770000Y-151222900D03*
%TO.N,/~{IOREQ}*%
X140170000Y-151320800D03*
%TO.N,/~{RD}*%
X141770000Y-152586300D03*
%TO.N,/~{WR}*%
X142570000Y-155647100D03*
%TO.N,/~{BUSAK}*%
X143113500Y-150623000D03*
%TO.N,/~{WAIT}*%
X144170000Y-158925200D03*
%TO.N,/~{BUSRQ}*%
X149231300Y-88672600D03*
X145947800Y-160482500D03*
%TO.N,/~{REFSH}*%
X147211100Y-87800700D03*
%TO.N,/A2*%
X146618000Y-91014600D03*
%TO.N,/A3*%
X146611400Y-92663000D03*
%TO.N,/A4*%
X147616700Y-92648100D03*
%TO.N,/A9*%
X142680800Y-101297800D03*
%TD*%
D15*
%TO.N,/A13*%
X134490600Y-94349800D02*
X133292400Y-93151600D01*
X133292400Y-89728300D02*
X129824100Y-86260000D01*
X133350000Y-100330000D02*
X133350000Y-99229700D01*
X134201100Y-75188500D02*
X135631500Y-75188500D01*
X133487500Y-99229700D02*
X134490600Y-98226600D01*
X129824100Y-86260000D02*
X129824100Y-78997100D01*
X133292400Y-93151600D02*
X133292400Y-89728300D01*
X129824100Y-78997100D02*
X131496500Y-77324700D01*
X132464100Y-77324700D02*
X133608500Y-76180300D01*
X131496500Y-77324700D02*
X132464100Y-77324700D01*
X133608500Y-76180300D02*
X133608500Y-75781100D01*
X133350000Y-99229700D02*
X133487500Y-99229700D01*
X134490600Y-98226600D02*
X134490600Y-94349800D01*
X133608500Y-75781100D02*
X134201100Y-75188500D01*
X135631500Y-75188500D02*
X139700000Y-71120000D01*
%TO.N,/A14*%
X134890900Y-92434400D02*
X134890900Y-100404700D01*
X133525900Y-101769700D02*
X133350000Y-101769700D01*
X134590800Y-92134300D02*
X134890900Y-92434400D01*
X133350000Y-102870000D02*
X133350000Y-101769700D01*
X134890900Y-100404700D02*
X133525900Y-101769700D01*
%TO.N,/A15*%
X131662300Y-77725000D02*
X130224400Y-79162900D01*
X133350000Y-105410000D02*
X133350000Y-104309700D01*
X135291200Y-102506200D02*
X133487700Y-104309700D01*
X138219200Y-70060800D02*
X140080100Y-70060800D01*
X137160000Y-71120000D02*
X138219200Y-70060800D01*
X130224400Y-79162900D02*
X130224400Y-86093800D01*
X135291200Y-91160600D02*
X135291200Y-102506200D01*
X130224400Y-86093800D02*
X135291200Y-91160600D01*
X133487700Y-104309700D02*
X133350000Y-104309700D01*
X134530000Y-77725000D02*
X131662300Y-77725000D01*
X140712400Y-70693100D02*
X140712400Y-71542600D01*
X140080100Y-70060800D02*
X140712400Y-70693100D01*
X140712400Y-71542600D02*
X134530000Y-77725000D01*
%TO.N,/CLK*%
X133350000Y-107950000D02*
X133350000Y-106849700D01*
X130624700Y-85874300D02*
X130624700Y-80117900D01*
X130624700Y-80117900D02*
X131004300Y-79738300D01*
X133568200Y-106849700D02*
X135691500Y-104726400D01*
X135691500Y-104726400D02*
X135691500Y-90941100D01*
X133350000Y-106849700D02*
X133568200Y-106849700D01*
X135691500Y-90941100D02*
X130624700Y-85874300D01*
%TO.N,/DA4*%
X131826600Y-89960800D02*
X129023500Y-87157700D01*
X133350000Y-110490000D02*
X131826600Y-108966600D01*
X132513300Y-74671600D02*
X133350000Y-73834900D01*
X129023500Y-87157700D02*
X129023500Y-77781000D01*
X129023500Y-77781000D02*
X132132900Y-74671600D01*
X132132900Y-74671600D02*
X132513300Y-74671600D01*
X131826600Y-108966600D02*
X131826600Y-89960800D01*
X133350000Y-73834900D02*
X133350000Y-72390000D01*
X133350000Y-72390000D02*
X134620000Y-71120000D01*
%TO.N,/DA3*%
X128623100Y-77116900D02*
X132080000Y-73660000D01*
X131415000Y-110132200D02*
X131415000Y-91129600D01*
X133350000Y-111929700D02*
X133212500Y-111929700D01*
X133350000Y-113030000D02*
X133350000Y-111929700D01*
X131415000Y-91129600D02*
X128623100Y-88337700D01*
X133212500Y-111929700D02*
X131415000Y-110132200D01*
X128623100Y-88337700D02*
X128623100Y-77116900D01*
%TO.N,/DA6*%
X132226900Y-89228900D02*
X129423800Y-86425800D01*
X129423800Y-86425800D02*
X129423800Y-78831300D01*
X133350000Y-117009700D02*
X133487500Y-117009700D01*
X133487500Y-117009700D02*
X134499200Y-115998000D01*
X134499200Y-115998000D02*
X134499200Y-110056100D01*
X132055100Y-76200000D02*
X132080000Y-76200000D01*
X134499200Y-110056100D02*
X133663100Y-109220000D01*
X133056500Y-109220000D02*
X132226900Y-108390400D01*
X133350000Y-118110000D02*
X133350000Y-117009700D01*
X129423800Y-78831300D02*
X132055100Y-76200000D01*
X133663100Y-109220000D02*
X133056500Y-109220000D01*
X132226900Y-108390400D02*
X132226900Y-89228900D01*
%TO.N,/DA2*%
X133156500Y-87145500D02*
X133156500Y-80203500D01*
X136492100Y-90481100D02*
X133156500Y-87145500D01*
X133156500Y-80203500D02*
X134620000Y-78740000D01*
X133350000Y-122089700D02*
X133487500Y-122089700D01*
X136492100Y-119085100D02*
X136492100Y-90481100D01*
X133487500Y-122089700D02*
X136492100Y-119085100D01*
X133350000Y-123190000D02*
X133350000Y-122089700D01*
%TO.N,/DA7*%
X136091800Y-116934800D02*
X136091800Y-90647000D01*
X133646600Y-119380000D02*
X136091800Y-116934800D01*
X131045500Y-82314500D02*
X132080000Y-81280000D01*
X132249700Y-120185100D02*
X133054800Y-119380000D01*
X132249700Y-125730000D02*
X132249700Y-120185100D01*
X131045500Y-85600700D02*
X131045500Y-82314500D01*
X133350000Y-125730000D02*
X132249700Y-125730000D01*
X133054800Y-119380000D02*
X133646600Y-119380000D01*
X136091800Y-90647000D02*
X131045500Y-85600700D01*
%TO.N,/DA0*%
X133350000Y-127169700D02*
X133487500Y-127169700D01*
X131800700Y-147260800D02*
X131800700Y-130691600D01*
X133487500Y-127169700D02*
X136892400Y-123764800D01*
X136892400Y-123764800D02*
X136892400Y-90315300D01*
X133122000Y-129370300D02*
X133350000Y-129370300D01*
X133593900Y-82306100D02*
X134620000Y-81280000D01*
X133350000Y-128270000D02*
X133350000Y-127169700D01*
X136795700Y-152255800D02*
X131800700Y-147260800D01*
X136892400Y-90315300D02*
X133593900Y-87016800D01*
X133350000Y-128270000D02*
X133350000Y-129370300D01*
X133593900Y-87016800D02*
X133593900Y-82306100D01*
X131800700Y-130691600D02*
X133122000Y-129370300D01*
%TO.N,/~{INT}*%
X137292700Y-90149500D02*
X134620000Y-87476800D01*
X133487500Y-132249700D02*
X137292700Y-128444500D01*
X137292700Y-128444500D02*
X137292700Y-90149500D01*
X134620000Y-87476800D02*
X134620000Y-86360000D01*
X133350000Y-132249700D02*
X133487500Y-132249700D01*
X133350000Y-133350000D02*
X133350000Y-132249700D01*
%TO.N,/~{NMI}*%
X137693000Y-89983700D02*
X135694600Y-87985300D01*
X132206500Y-137033500D02*
X133350000Y-135890000D01*
X137693000Y-130584200D02*
X137693000Y-89983700D01*
X135694600Y-84894600D02*
X134620000Y-83820000D01*
X132206500Y-145659400D02*
X132206500Y-137033500D01*
X135694600Y-87985300D02*
X135694600Y-84894600D01*
X137770000Y-151222900D02*
X132206500Y-145659400D01*
X133487500Y-134789700D02*
X137693000Y-130584200D01*
X133350000Y-135890000D02*
X133350000Y-134789700D01*
X133350000Y-134789700D02*
X133487500Y-134789700D01*
%TO.N,/~{HALT}*%
X133350000Y-137329700D02*
X133469200Y-137329700D01*
X138093300Y-87293300D02*
X137160000Y-86360000D01*
X133350000Y-138430000D02*
X133350000Y-137329700D01*
X138093300Y-132705600D02*
X138093300Y-87293300D01*
X133469200Y-137329700D02*
X138093300Y-132705600D01*
%TO.N,/~{MREQ}*%
X138493600Y-85153600D02*
X137160000Y-83820000D01*
X138493600Y-134863800D02*
X138493600Y-85153600D01*
X133487700Y-139869700D02*
X138493600Y-134863800D01*
X133350000Y-140970000D02*
X133350000Y-139869700D01*
X133350000Y-139869700D02*
X133487700Y-139869700D01*
%TO.N,/~{IOREQ}*%
X133350000Y-143510000D02*
X133350000Y-144610300D01*
X133487500Y-142409700D02*
X139700000Y-136197200D01*
X139700000Y-136197200D02*
X139700000Y-86360000D01*
X133350000Y-142409700D02*
X133487500Y-142409700D01*
X133350000Y-144610300D02*
X133459500Y-144610300D01*
X133459500Y-144610300D02*
X140170000Y-151320800D01*
X133350000Y-143510000D02*
X133350000Y-142409700D01*
%TO.N,/~{RD}*%
X148590000Y-146198200D02*
X148590000Y-144610300D01*
X142830800Y-151330600D02*
X140828200Y-149328000D01*
X142830800Y-151330600D02*
X143457600Y-151330600D01*
X140828100Y-84948100D02*
X139700000Y-83820000D01*
X140828200Y-84948100D02*
X140828100Y-84948100D01*
X148590000Y-143510000D02*
X148590000Y-144610300D01*
X142830800Y-151330600D02*
X142830800Y-151525500D01*
X140828200Y-149328000D02*
X140828200Y-84948100D01*
X142830800Y-151525500D02*
X141770000Y-152586300D01*
X143457600Y-151330600D02*
X148590000Y-146198200D01*
%TO.N,/~{WR}*%
X149690400Y-148526700D02*
X142570000Y-155647100D01*
X143818000Y-132694100D02*
X148283900Y-137160000D01*
X148590000Y-140970000D02*
X148590000Y-142070300D01*
X148590000Y-140970000D02*
X148590000Y-139869700D01*
X148727500Y-139869700D02*
X148590000Y-139869700D01*
X148727500Y-142070300D02*
X149690400Y-143033200D01*
X149690400Y-138906800D02*
X148727500Y-139869700D01*
X148283900Y-137160000D02*
X148901800Y-137160000D01*
X148590000Y-142070300D02*
X148727500Y-142070300D01*
X149690400Y-143033200D02*
X149690400Y-148526700D01*
X143818000Y-87322000D02*
X143818000Y-132694100D01*
X144780000Y-86360000D02*
X143818000Y-87322000D01*
X149690400Y-137948600D02*
X149690400Y-138906800D01*
X148901800Y-137160000D02*
X149690400Y-137948600D01*
%TO.N,/~{BUSAK}*%
X143417700Y-85182300D02*
X143417700Y-134358000D01*
X144780000Y-83820000D02*
X143417700Y-85182300D01*
X143113500Y-142806200D02*
X143113500Y-150623000D01*
X147489700Y-138430000D02*
X143113500Y-142806200D01*
X143417700Y-134358000D02*
X147489700Y-138430000D01*
X148590000Y-138430000D02*
X147489700Y-138430000D01*
%TO.N,/~{WAIT}*%
X144218400Y-89461600D02*
X147320000Y-86360000D01*
X150090800Y-153004400D02*
X150090800Y-137390800D01*
X144218400Y-131518400D02*
X144218400Y-89461600D01*
X150090800Y-137390800D02*
X148590000Y-135890000D01*
X144170000Y-158925200D02*
X150090800Y-153004400D01*
X148590000Y-135890000D02*
X144218400Y-131518400D01*
%TO.N,/~{BUSRQ}*%
X148590000Y-132799800D02*
X148590000Y-132249700D01*
X145947800Y-160482500D02*
X150505200Y-155925100D01*
X149059500Y-109361600D02*
X148436600Y-109361600D01*
X147083300Y-94602300D02*
X149088800Y-92596800D01*
X147083300Y-108008300D02*
X147083300Y-94602300D01*
X148590000Y-133350000D02*
X148590000Y-132921900D01*
X149088800Y-92596800D02*
X149088800Y-88815100D01*
X148590000Y-132249700D02*
X148727500Y-132249700D01*
X148590000Y-133350000D02*
X148590000Y-134450300D01*
X148727500Y-132249700D02*
X150166400Y-130810800D01*
X150166400Y-130810800D02*
X150166400Y-110468500D01*
X150505200Y-136137500D02*
X148818000Y-134450300D01*
X150505200Y-155925100D02*
X150505200Y-136137500D01*
X150166400Y-110468500D02*
X149059500Y-109361600D01*
X148818000Y-134450300D02*
X148590000Y-134450300D01*
X149088800Y-88815100D02*
X149231300Y-88672600D01*
X148436600Y-109361600D02*
X147083300Y-108008300D01*
X148590000Y-132799800D02*
X148590000Y-132921900D01*
%TO.N,/~{RESET}*%
X148590000Y-129709700D02*
X148727700Y-129709700D01*
X148767600Y-87803700D02*
X148767600Y-85602500D01*
X148270900Y-116840000D02*
X145463500Y-114032600D01*
X148590000Y-130810000D02*
X148590000Y-129709700D01*
X148767600Y-85602500D02*
X147320000Y-84154900D01*
X149742500Y-117703700D02*
X148878800Y-116840000D01*
X148727700Y-129709700D02*
X149742500Y-128694900D01*
X145463500Y-91107800D02*
X148767600Y-87803700D01*
X147320000Y-84154900D02*
X147320000Y-83820000D01*
X145463500Y-114032600D02*
X145463500Y-91107800D01*
X148878800Y-116840000D02*
X148270900Y-116840000D01*
X149742500Y-128694900D02*
X149742500Y-117703700D01*
%TO.N,/~{REFSH}*%
X148452300Y-124629700D02*
X144636200Y-120813600D01*
X144636200Y-120813600D02*
X144636200Y-90375600D01*
X148590000Y-125730000D02*
X148590000Y-124629700D01*
X148590000Y-124629700D02*
X148452300Y-124629700D01*
X144636200Y-90375600D02*
X147211100Y-87800700D01*
%TO.N,/A0*%
X147282900Y-84831600D02*
X146897500Y-84831600D01*
X148590000Y-119549700D02*
X148452500Y-119549700D01*
X146275400Y-84209500D02*
X146275400Y-79784600D01*
X145063100Y-90941900D02*
X148367200Y-87637800D01*
X148590000Y-120650000D02*
X148590000Y-119549700D01*
X148367200Y-85915900D02*
X147282900Y-84831600D01*
X148367200Y-87637800D02*
X148367200Y-85915900D01*
X148452500Y-119549700D02*
X145063100Y-116160300D01*
X145063100Y-116160300D02*
X145063100Y-90941900D01*
X146897500Y-84831600D02*
X146275400Y-84209500D01*
X146275400Y-79784600D02*
X147320000Y-78740000D01*
%TO.N,/A2*%
X145863800Y-111971500D02*
X145863800Y-91768800D01*
X148590000Y-114469700D02*
X148362000Y-114469700D01*
X148362000Y-114469700D02*
X145863800Y-111971500D01*
X145863800Y-91768800D02*
X146618000Y-91014600D01*
X148590000Y-115570000D02*
X148590000Y-114469700D01*
%TO.N,/A3*%
X146282600Y-109760000D02*
X146282600Y-92991800D01*
X148590000Y-111929700D02*
X148452300Y-111929700D01*
X146282600Y-92991800D02*
X146611400Y-92663000D01*
X148452300Y-111929700D02*
X146282600Y-109760000D01*
X148590000Y-113030000D02*
X148590000Y-111929700D01*
%TO.N,/A4*%
X148590000Y-110490000D02*
X146682900Y-108582900D01*
X146682900Y-108582900D02*
X146682900Y-93581900D01*
X146682900Y-93581900D02*
X147616700Y-92648100D01*
%TO.N,/A5*%
X150737400Y-104839800D02*
X150737400Y-89855200D01*
X151278200Y-89314400D02*
X151278200Y-72538200D01*
X148590000Y-107950000D02*
X148590000Y-106849700D01*
X151278200Y-72538200D02*
X149860000Y-71120000D01*
X148590000Y-106849700D02*
X148727500Y-106849700D01*
X148727500Y-106849700D02*
X150737400Y-104839800D01*
X150737400Y-89855200D02*
X151278200Y-89314400D01*
%TO.N,/A6*%
X149650800Y-72390000D02*
X148590000Y-71329200D01*
X150877900Y-89148600D02*
X150877900Y-73193900D01*
X150877900Y-73193900D02*
X150074000Y-72390000D01*
X148590000Y-71329200D02*
X148590000Y-69850000D01*
X148727500Y-104309700D02*
X150337100Y-102700100D01*
X150337100Y-102700100D02*
X150337100Y-89689400D01*
X148590000Y-69850000D02*
X147320000Y-68580000D01*
X150337100Y-89689400D02*
X150877900Y-89148600D01*
X150074000Y-72390000D02*
X149650800Y-72390000D01*
X148590000Y-104309700D02*
X148727500Y-104309700D01*
X148590000Y-105410000D02*
X148590000Y-104309700D01*
%TO.N,/A7*%
X148590000Y-102870000D02*
X148590000Y-101769700D01*
X150331900Y-86034500D02*
X148848400Y-84551000D01*
X149936800Y-89523600D02*
X150331900Y-89128500D01*
X149936800Y-100560400D02*
X149936800Y-89523600D01*
X148727500Y-101769700D02*
X149936800Y-100560400D01*
X148848400Y-72648400D02*
X147320000Y-71120000D01*
X148848400Y-84551000D02*
X148848400Y-72648400D01*
X148590000Y-101769700D02*
X148727500Y-101769700D01*
X150331900Y-89128500D02*
X150331900Y-86034500D01*
%TO.N,/A8*%
X148347900Y-75736400D02*
X147541500Y-74930000D01*
X149536500Y-89357800D02*
X149931600Y-88962700D01*
X148347900Y-84616600D02*
X148347900Y-75736400D01*
X147541500Y-74930000D02*
X147090900Y-74930000D01*
X148590000Y-100330000D02*
X148590000Y-99229700D01*
X146050000Y-69850000D02*
X144780000Y-68580000D01*
X147483800Y-98261000D02*
X147483800Y-94788500D01*
X147090900Y-74930000D02*
X146050000Y-73889100D01*
X148452500Y-99229700D02*
X147483800Y-98261000D01*
X149536500Y-92735800D02*
X149536500Y-89357800D01*
X149931600Y-88962700D02*
X149931600Y-86200300D01*
X149931600Y-86200300D02*
X148347900Y-84616600D01*
X148590000Y-99229700D02*
X148452500Y-99229700D01*
X147483800Y-94788500D02*
X149536500Y-92735800D01*
X146050000Y-73889100D02*
X146050000Y-69850000D01*
%TO.N,/A9*%
X144780000Y-71120000D02*
X141228500Y-74671500D01*
X141228500Y-74671500D02*
X141228500Y-99845500D01*
X141228500Y-99845500D02*
X142680800Y-101297800D01*
%TD*%
M02*
